<svg xmlns="http://www.w3.org/2000/svg" xmlns:xlink="http://www.w3.org/1999/xlink" width="1000" zoomAndPan="magnify" viewBox="0 0 750 749.999995" height="1000" preserveAspectRatio="xMidYMid meet" version="1.0"><path stroke-linecap="butt" transform="matrix(0.509526, 0.550349, -0.550349, 0.509526, 216.874679, 180.333556)" fill="none" stroke-linejoin="miter" d="M -0.00151532 1.999586 L 263.296293 2.000886 " stroke="#000000" stroke-width="4" stroke-opacity="1" stroke-miterlimit="4"/><path stroke-linecap="round" transform="matrix(0.509526, 0.550349, -0.550349, 0.509526, 216.874679, 180.333556)" fill="none" stroke-linejoin="round" d="M 255.299753 -3.997138 L 263.296293 2.000886 L 255.301124 7.999369 " stroke="#000000" stroke-width="4" stroke-opacity="1" stroke-miterlimit="4"/><path fill="#ffffff" d="M 649.902344 8.339844 C 627.417969 8.339844 604.933594 17.046875 588.25 33.726562 L 375 246.253906 L 162.476562 33.726562 C 145.066406 17.046875 123.308594 8.339844 100.820312 8.339844 C 78.335938 8.339844 55.851562 17.046875 39.167969 33.726562 L 34.089844 38.804688 C 0 72.898438 0 128.023438 34.089844 162.113281 L 246.613281 374.636719 L 34.089844 587.886719 C 0 621.976562 0 677.101562 34.089844 711.195312 L 39.167969 716.273438 C 55.851562 732.953125 78.335938 741.660156 100.820312 741.660156 C 123.308594 741.660156 145.792969 732.953125 162.476562 716.273438 L 375 503.746094 L 587.523438 716.273438 C 604.207031 732.953125 626.691406 741.660156 649.179688 741.660156 C 671.664062 741.660156 694.148438 732.953125 710.832031 716.273438 L 715.910156 711.195312 C 750 677.105469 750 621.976562 715.910156 587.886719 L 503.386719 374.636719 L 715.910156 162.113281 C 750 128.023438 750 72.898438 715.910156 38.804688 L 710.832031 33.726562 C 694.148438 17.046875 671.664062 8.339844 649.902344 8.339844 Z M 649.902344 8.339844 " fill-opacity="1" fill-rule="nonzero"/></svg>