<svg xmlns="http://www.w3.org/2000/svg" xmlns:xlink="http://www.w3.org/1999/xlink" width="1000" zoomAndPan="magnify" viewBox="0 0 750 749.999995" height="1000" preserveAspectRatio="xMidYMid meet" version="1.0"><defs><clipPath id="70cfbc1b1a"><path d="M 0 1.363281 L 750 1.363281 L 750 748.363281 L 0 748.363281 Z M 0 1.363281 " clip-rule="nonzero"/></clipPath></defs><path stroke-linecap="butt" transform="matrix(-0.194114, 0.724444, -0.724444, -0.194114, 176.789951, 258.999382)" fill="none" stroke-linejoin="miter" d="M -0.00186971 2.002183 L 111.591639 1.999786 " stroke="#000000" stroke-width="4" stroke-opacity="1" stroke-miterlimit="4"/><path stroke-linecap="round" transform="matrix(-0.194114, 0.724444, -0.724444, -0.194114, 176.789951, 258.999382)" fill="none" stroke-linejoin="round" d="M 103.58953 -3.998072 L 111.591639 1.999786 L 103.59047 7.999018 " stroke="#000000" stroke-width="4" stroke-opacity="1" stroke-miterlimit="4"/><g clip-path="url(#70cfbc1b1a)"><path fill="#ffffff" d="M 750.082031 376.277344 C 750.082031 169.203125 582.183594 1.363281 375.066406 1.363281 C 167.953125 1.363281 0.0195312 169.203125 0.0195312 376.277344 C 0.0195312 552.089844 121.097656 699.640625 284.453125 740.152344 L 284.453125 490.851562 L 207.101562 490.851562 L 207.101562 376.277344 L 284.453125 376.277344 L 284.453125 326.914062 C 284.453125 199.320312 342.214844 140.164062 467.535156 140.164062 C 491.296875 140.164062 532.296875 144.808594 549.058594 149.484375 L 549.058594 253.324219 C 540.207031 252.382812 524.824219 251.910156 505.738281 251.910156 C 444.238281 251.910156 420.476562 275.195312 420.476562 335.730469 L 420.476562 376.242188 L 542.96875 376.242188 L 521.929688 490.816406 L 420.476562 490.816406 L 420.476562 748.398438 C 606.183594 725.988281 750.082031 567.90625 750.082031 376.242188 Z M 750.082031 376.277344 " fill-opacity="1" fill-rule="nonzero"/></g></svg>