<svg xmlns="http://www.w3.org/2000/svg" xmlns:xlink="http://www.w3.org/1999/xlink" width="1000" zoomAndPan="magnify" viewBox="0 0 750 749.999995" height="1000" preserveAspectRatio="xMidYMid meet" version="1.0"><path stroke-linecap="butt" transform="matrix(0.62348, -0.416861, 0.416861, 0.62348, 231.371886, 283.07901)" fill="none" stroke-linejoin="miter" d="M 0.00287638 1.999114 L 79.889891 2.000671 " stroke="#000000" stroke-width="4" stroke-opacity="1" stroke-miterlimit="4"/><path stroke-linecap="round" transform="matrix(0.62348, -0.416861, 0.416861, 0.62348, 231.371886, 283.07901)" fill="none" stroke-linejoin="round" d="M 71.88655 -4.001973 L 79.889891 2.000671 L 71.886361 8.002097 " stroke="#000000" stroke-width="4" stroke-opacity="1" stroke-miterlimit="4"/><path fill="#ffffff" d="M 219.59375 2.578125 C 179.710938 4.453125 152.472656 10.84375 128.664062 20.171875 C 104.003906 29.78125 83.125 42.640625 62.351562 63.519531 C 41.546875 84.398438 28.757812 105.3125 19.253906 130.003906 C 10.03125 153.886719 3.78125 181.125 2.011719 221.042969 C 0.246094 261 -0.140625 273.75 0.0351562 375.566406 C 0.210938 477.34375 0.671875 490.132812 2.578125 530.121094 C 4.488281 570.007812 10.84375 597.210938 20.171875 621.054688 C 29.78125 645.714844 42.640625 666.558594 63.519531 687.363281 C 84.398438 708.171875 105.3125 720.925781 130.003906 730.464844 C 153.851562 739.683594 181.125 745.972656 221.007812 747.703125 C 261 749.46875 273.75 749.859375 375.53125 749.648438 C 477.34375 749.46875 490.097656 749.011719 530.085938 747.101562 C 569.972656 745.195312 597.171875 738.800781 621.019531 729.511719 C 645.679688 719.867188 666.558594 707.042969 687.328125 686.164062 C 708.101562 665.285156 720.890625 644.371094 730.429688 619.675781 C 739.648438 595.832031 745.9375 568.558594 747.667969 528.710938 C 749.398438 488.71875 749.824219 475.929688 749.648438 374.152344 C 749.46875 272.375 748.976562 259.621094 747.101562 219.628906 C 745.195312 179.710938 738.835938 152.507812 729.511719 128.664062 C 719.867188 104.003906 707.042969 83.160156 686.164062 62.351562 C 665.285156 41.582031 644.371094 28.757812 619.675781 19.253906 C 595.832031 10.03125 568.558594 3.746094 528.675781 2.015625 C 488.683594 0.246094 475.894531 -0.140625 374.117188 0.0351562 C 272.339844 0.210938 259.585938 0.671875 219.59375 2.578125 M 223.976562 680.191406 C 187.445312 678.601562 167.59375 672.527344 154.34375 667.441406 C 136.824219 660.65625 124.351562 652.53125 111.175781 639.496094 C 98.035156 626.390625 89.90625 613.917969 83.054688 596.46875 C 77.933594 583.253906 71.75 563.4375 70.019531 526.871094 C 68.148438 487.375 67.722656 475.507812 67.546875 375.425781 C 67.371094 275.375 67.722656 263.507812 69.453125 223.976562 C 71.007812 187.445312 77.121094 167.59375 82.207031 154.378906 C 88.988281 136.859375 97.078125 124.386719 110.152344 111.210938 C 123.257812 98.070312 135.726562 89.945312 153.214844 83.089844 C 166.425781 77.933594 186.246094 71.785156 222.773438 70.054688 C 262.304688 68.183594 274.140625 67.792969 374.222656 67.582031 C 474.304688 67.371094 486.175781 67.722656 525.707031 69.488281 C 562.234375 71.078125 582.089844 77.121094 595.300781 82.242188 C 612.824219 89.023438 625.328125 97.078125 638.472656 110.1875 C 651.613281 123.292969 659.773438 135.726562 666.59375 153.25 C 671.75 166.425781 677.898438 186.28125 679.628906 222.773438 C 681.5 262.304688 681.925781 274.175781 682.101562 374.222656 C 682.277344 474.304688 681.925781 486.175781 680.191406 525.671875 C 678.601562 562.199219 672.527344 582.089844 667.441406 595.300781 C 660.65625 612.789062 652.566406 625.292969 639.460938 638.4375 C 626.355469 651.542969 613.917969 659.703125 596.398438 666.558594 C 583.21875 671.714844 563.367188 677.863281 526.871094 679.59375 C 487.339844 681.464844 475.507812 681.890625 375.386719 682.066406 C 275.339844 682.242188 263.472656 681.890625 223.941406 680.15625 M 529.558594 174.480469 C 529.59375 199.316406 549.800781 219.417969 574.597656 219.347656 C 599.433594 219.3125 619.535156 199.140625 619.5 174.304688 C 619.464844 149.46875 599.257812 129.367188 574.421875 129.402344 C 549.585938 129.441406 529.488281 149.648438 529.523438 174.445312 M 182.359375 375.210938 C 182.570312 481.511719 268.910156 567.5 375.175781 567.285156 C 481.476562 567.074219 567.5 480.769531 567.285156 374.46875 C 567.074219 268.207031 480.734375 182.183594 374.433594 182.359375 C 268.171875 182.570312 182.148438 268.910156 182.359375 375.210938 M 249.871094 375.070312 C 249.765625 306.078125 305.582031 250.011719 374.574219 249.90625 C 443.570312 249.765625 499.636719 305.582031 499.777344 374.613281 C 499.917969 443.605469 444.066406 499.671875 375.070312 499.777344 C 306.078125 499.917969 250.011719 444.066406 249.90625 375.070312 " fill-opacity="1" fill-rule="nonzero"/></svg>