<svg xmlns="http://www.w3.org/2000/svg" xmlns:xlink="http://www.w3.org/1999/xlink" width="1000" zoomAndPan="magnify" viewBox="0 0 750 749.999995" height="1000" preserveAspectRatio="xMidYMid meet" version="1.0"><path stroke-linecap="butt" transform="matrix(-0.65644, 0.362748, -0.362748, -0.65644, 466.90666, 253.120556)" fill="none" stroke-linejoin="miter" d="M 0.00231446 1.99988 L 199.52872 1.998295 " stroke="#000000" stroke-width="4" stroke-opacity="1" stroke-miterlimit="4"/><path stroke-linecap="round" transform="matrix(-0.65644, 0.362748, -0.362748, -0.65644, 466.90666, 253.120556)" fill="none" stroke-linejoin="round" d="M 191.530355 -3.998519 L 199.52872 1.998295 L 191.530173 7.997905 " stroke="#000000" stroke-width="4" stroke-opacity="1" stroke-miterlimit="4"/><path fill="#eee400" d="M 574.800781 691.199219 C 509.371094 691.199219 467.054688 660 446.429688 619.199219 L 503.804688 585.960938 C 518.925781 610.648438 538.53125 628.753906 573.285156 628.753906 C 602.460938 628.753906 621.089844 614.160156 621.089844 594.015625 C 621.089844 563.730469 580.664062 551.863281 552.136719 539.652344 C 501.285156 518.007812 467.535156 490.8125 467.535156 433.410156 C 467.535156 380.5625 507.808594 340.304688 570.78125 340.304688 C 615.554688 340.304688 647.804688 355.902344 670.933594 396.660156 L 616.066406 431.910156 C 603.988281 410.261719 590.910156 401.714844 570.765625 401.714844 C 550.109375 401.714844 537.015625 414.808594 537.015625 431.910156 C 537.015625 453.058594 550.09375 461.609375 580.320312 474.703125 C 643.648438 501.839844 691.574219 523.183594 691.574219 593.007812 C 691.605469 656.476562 641.773438 691.199219 574.800781 691.199219 Z M 412.5 584.96875 C 412.5 657.976562 367.53125 696.570312 305.101562 696.570312 C 248.699219 696.570312 214.921875 675 198.300781 637.5 L 197.324219 637.5 L 254.65625 597.417969 C 265.726562 617.023438 275.699219 630.945312 299.851562 630.945312 C 323.023438 630.945312 337.5 619.214844 337.5 583.996094 L 337.5 337.5 L 412.5 337.5 Z M 0 750 L 750 750 L 750 0 L 0 0 Z M 0 750 " fill-opacity="1" fill-rule="evenodd"/></svg>