<svg xmlns="http://www.w3.org/2000/svg" xmlns:xlink="http://www.w3.org/1999/xlink" width="1000" zoomAndPan="magnify" viewBox="0 0 750 749.999995" height="1000" preserveAspectRatio="xMidYMid meet" version="1.0"><path stroke-linecap="butt" transform="matrix(0.0606068, 0.747547, -0.747547, 0.0606068, 157.665259, 458.817166)" fill="none" stroke-linejoin="miter" d="M -0.00098409 1.997632 L 90.132148 1.999959 " stroke="#000000" stroke-width="4" stroke-opacity="1" stroke-miterlimit="4"/><path stroke-linecap="round" transform="matrix(0.0606068, 0.747547, -0.747547, 0.0606068, 157.665259, 458.817166)" fill="none" stroke-linejoin="round" d="M 82.132458 -3.999442 L 90.132148 1.999959 L 82.131698 7.998067 " stroke="#000000" stroke-width="4" stroke-opacity="1" stroke-miterlimit="4"/><path fill="#00678c" d="M -1.382812 536.769531 L 23.253906 536.769531 L 23.253906 439.164062 L 61.726562 524.265625 C 66.082031 534.492188 72.34375 538.285156 84.464844 538.285156 C 96.585938 538.285156 102.472656 534.488281 106.976562 524.265625 L 145.257812 439.164062 L 145.257812 536.769531 L 170.082031 536.769531 L 170.082031 439.164062 C 170.082031 429.691406 166.289062 425.132812 158.328125 422.671875 C 139.570312 416.988281 127.0625 421.914062 121.378906 434.605469 L 83.671875 518.757812 L 47.285156 434.605469 C 41.789062 421.914062 29.089844 416.988281 10.140625 422.671875 C 2.371094 425.132812 -1.417969 429.6875 -1.417969 439.164062 L -1.421875 536.769531 Z M 190.585938 457.359375 L 215.414062 457.359375 L 215.414062 511 C 215.226562 514.027344 216.359375 520.855469 229.851562 521.035156 C 236.859375 521.226562 283.292969 521.035156 283.667969 521.035156 L 283.667969 456.976562 L 308.492188 456.976562 L 308.492188 544.730469 C 308.492188 566.335938 281.734375 571.070312 269.261719 571.265625 L 191.199219 571.265625 L 191.199219 554.78125 L 269.464844 554.78125 C 285.382812 553.074219 283.488281 545.117188 283.488281 542.464844 L 283.488281 536.015625 L 230.992188 536.015625 C 206.542969 535.824219 190.8125 525.019531 190.628906 512.703125 L 190.628906 457.351562 Z M 723.066406 395.191406 C 707.914062 394.808594 696.15625 396.328125 686.304688 400.5 C 683.464844 401.648438 678.914062 401.648438 678.539062 405.242188 C 680.054688 406.75 680.238281 409.21875 681.566406 411.308594 C 683.839844 415.101562 687.824219 420.210938 691.421875 422.863281 C 695.40625 425.898438 699.386719 428.925781 703.546875 431.582031 C 710.9375 436.128906 719.273438 438.78125 726.472656 443.332031 C 730.644531 445.988281 734.8125 449.398438 738.980469 452.246094 C 741.105469 453.761719 742.394531 456.230469 745.046875 457.171875 L 745.046875 456.597656 C 743.722656 454.898438 743.339844 452.4375 742.019531 450.53125 C 740.121094 448.640625 738.226562 446.929688 736.328125 445.039062 C 730.835938 437.648438 724.011719 431.199219 716.621094 425.898438 C 710.554688 421.726562 697.296875 416.042969 694.832031 409.035156 L 694.457031 408.652344 C 698.621094 408.269531 703.546875 406.753906 707.53125 405.613281 C 713.976562 403.914062 719.847656 404.289062 726.472656 402.585938 C 729.511719 401.820312 732.539062 400.878906 735.574219 399.929688 L 735.574219 398.230469 C 732.164062 394.820312 729.703125 390.269531 726.105469 387.050781 C 716.441406 378.710938 705.824219 370.5625 694.832031 363.738281 C 688.957031 359.949219 681.375 357.480469 675.125 354.265625 C 672.84375 353.128906 669.058594 352.558594 667.734375 350.664062 C 664.316406 346.5 662.425781 341 659.960938 336.066406 C 654.46875 325.644531 649.160156 314.082031 644.425781 303.089844 C 641.015625 295.699219 638.925781 288.308594 634.761719 281.484375 C 615.242188 249.265625 594.015625 229.746094 561.421875 210.597656 C 554.414062 206.617188 546.074219 204.90625 537.210938 202.824219 L 523 202.0625 C 519.964844 200.734375 516.933594 197.132812 514.28125 195.425781 C 503.480469 188.601562 475.621094 173.820312 467.65625 193.34375 C 462.539062 205.664062 475.238281 217.789062 479.550781 224.046875 C 482.777344 228.40625 486.941406 233.335938 489.222656 238.261719 C 490.496094 241.480469 490.921875 244.898438 492.25 248.308594 C 495.277344 256.648438 498.125 265.9375 502.101562 273.710938 C 504.226562 277.691406 506.457031 281.867188 509.113281 285.464844 C 510.628906 287.546875 513.28125 288.5 513.847656 291.910156 C 511.191406 295.703125 511.011719 301.382812 509.492188 306.128906 C 502.667969 327.546875 505.324219 354.078125 514.984375 369.804688 C 518.023438 374.539062 525.179688 384.96875 534.886719 380.984375 C 543.417969 377.574219 541.515625 366.769531 543.976562 357.292969 C 544.550781 355.023438 544.167969 353.503906 545.300781 351.984375 L 545.300781 352.367188 L 553.074219 368.097656 C 558.949219 377.382812 569.183594 387.050781 577.710938 393.5 C 582.253906 396.910156 585.855469 402.789062 591.539062 404.871094 L 591.539062 404.296875 L 591.164062 404.296875 C 590.027344 402.597656 588.320312 401.835938 586.800781 400.507812 C 583.390625 397.097656 579.601562 392.925781 576.949219 389.136719 C 568.992188 378.527344 561.984375 366.769531 555.730469 354.644531 C 552.691406 348.769531 550.039062 342.324219 547.582031 336.449219 C 546.4375 334.171875 546.4375 330.757812 544.546875 329.628906 C 541.699219 333.789062 537.539062 337.402344 535.445312 342.515625 C 531.84375 350.664062 531.46875 360.710938 530.144531 371.132812 C 529.378906 371.324219 529.71875 371.132812 529.378906 371.515625 C 523.324219 370.003906 521.234375 363.742188 518.960938 358.441406 C 513.277344 344.984375 512.328125 323.378906 517.253906 307.835938 C 518.578125 303.855469 524.269531 291.34375 521.996094 287.554688 C 520.851562 283.953125 517.070312 281.871094 514.980469 279.023438 C 512.519531 275.421875 509.871094 270.878906 508.164062 266.898438 C 503.621094 256.277344 501.347656 244.53125 496.417969 233.917969 C 494.136719 228.988281 490.160156 223.871094 486.9375 219.324219 C 483.335938 214.207031 479.363281 210.601562 476.519531 204.542969 C 475.570312 202.460938 474.246094 199.042969 475.761719 196.765625 C 476.136719 195.25 476.898438 194.6875 478.40625 194.304688 C 480.871094 192.222656 487.886719 194.871094 490.351562 196.003906 C 497.359375 198.847656 503.234375 201.5 509.105469 205.476562 C 511.761719 207.371094 514.605469 210.972656 518.019531 211.925781 L 522.003906 211.925781 C 528.066406 213.25 534.882812 212.304688 540.5625 214.003906 C 550.605469 217.234375 559.699219 221.964844 567.855469 227.089844 C 592.675781 242.820312 613.148438 265.183594 626.976562 291.914062 C 629.25 296.273438 630.195312 300.253906 632.285156 304.800781 C 636.269531 314.09375 641.199219 323.566406 645.167969 332.667969 C 649.152344 341.578125 652.941406 350.679688 658.625 358.070312 C 661.46875 362.050781 672.835938 364.132812 677.949219 366.21875 C 681.742188 367.917969 687.613281 369.449219 691.03125 371.527344 C 697.46875 375.507812 703.914062 380.058594 709.972656 384.417969 C 713 386.6875 722.480469 391.425781 723.046875 395.207031 Z M 529.816406 230.488281 C 527.1875 230.464844 524.597656 230.78125 522.050781 231.433594 L 522.050781 231.816406 L 522.425781 231.816406 C 523.941406 234.851562 526.597656 236.9375 528.492188 239.589844 L 532.851562 248.691406 L 533.226562 248.308594 C 535.882812 246.414062 537.210938 243.378906 537.210938 238.835938 C 536.074219 237.511719 535.886719 236.179688 534.9375 234.855469 C 533.800781 232.960938 531.335938 232.007812 529.816406 230.496094 Z M 529.816406 230.488281 " fill-opacity="1" fill-rule="evenodd"/><path fill="#ce8b2c" d="M 327.410156 536.769531 L 398.660156 536.769531 C 407 536.769531 414.960938 535.070312 421.402344 532.035156 C 432.203125 527.105469 437.320312 520.480469 437.320312 511.757812 L 437.320312 493.566406 C 437.320312 486.554688 431.445312 479.917969 419.703125 475.371094 C 413.636719 473.097656 406.054688 471.769531 398.664062 471.769531 L 368.722656 471.769531 C 358.675781 471.769531 353.941406 468.730469 352.613281 462.105469 C 352.425781 461.347656 352.425781 460.585938 352.425781 459.832031 L 352.425781 448.648438 C 352.425781 448.074219 352.425781 447.320312 352.613281 446.566406 C 353.9375 441.445312 356.589844 440.117188 365.355469 439.175781 L 438.308594 439.175781 L 438.308594 422.679688 L 368.953125 422.679688 C 358.90625 422.679688 353.601562 423.253906 348.863281 424.769531 C 334.269531 429.3125 327.824219 436.519531 327.824219 449.210938 L 327.824219 463.625 C 327.824219 474.796875 340.332031 484.28125 361.558594 486.554688 C 363.828125 486.746094 366.292969 486.746094 368.753906 486.746094 L 394.339844 486.746094 C 395.289062 486.746094 396.230469 486.746094 396.988281 486.9375 C 404.761719 487.695312 408.171875 489.019531 410.441406 491.855469 C 411.960938 493.375 412.339844 494.703125 412.339844 496.410156 L 412.339844 510.8125 C 412.339844 512.511719 411.203125 514.796875 408.929688 516.6875 C 406.660156 518.578125 403.046875 519.90625 398.3125 520.097656 C 397.367188 520.097656 396.804688 520.289062 395.847656 520.289062 L 327.410156 520.289062 Z M 591.566406 508.15625 C 591.566406 525.019531 604.308594 534.492188 629.664062 536.398438 C 632.128906 536.589844 634.402344 536.769531 636.863281 536.769531 L 701.296875 536.769531 L 701.296875 520.289062 L 636.300781 520.289062 C 621.890625 520.289062 616.398438 516.6875 616.398438 507.96875 L 616.398438 422.679688 L 591.507812 422.679688 L 591.507812 508.160156 Z M 453.042969 508.910156 L 453.042969 450.160156 C 453.042969 435.183594 463.652344 426.082031 484.316406 423.242188 C 486.589844 423.054688 488.859375 422.863281 490.941406 422.863281 L 537.933594 422.863281 C 540.398438 422.863281 542.484375 423.054688 544.949219 423.242188 C 565.605469 426.082031 576.023438 435.179688 576.023438 450.160156 L 576.023438 508.910156 C 576.023438 521.035156 571.667969 527.484375 561.429688 531.847656 L 585.679688 553.828125 L 557.070312 553.828125 L 537.363281 536.015625 L 517.460938 537.152344 L 490.933594 537.152344 C 486.050781 537.128906 481.25 536.5 476.53125 535.261719 C 460.816406 530.894531 453.042969 522.5625 453.042969 508.910156 Z M 479.757812 507.589844 C 479.757812 508.347656 480.183594 509.101562 480.332031 510.054688 C 481.65625 516.875 488.097656 520.667969 497.949219 520.667969 L 520.316406 520.667969 L 499.851562 502.089844 L 528.460938 502.089844 L 546.460938 518.394531 C 549.878906 516.496094 551.960938 513.839844 552.71875 510.429688 C 552.910156 509.671875 552.910156 508.730469 552.910156 507.964844 L 552.910156 451.671875 C 552.910156 450.914062 552.910156 450.164062 552.71875 449.398438 C 551.394531 442.957031 544.953125 439.359375 535.289062 439.359375 L 497.953125 439.359375 C 486.960938 439.359375 479.761719 444.097656 479.761719 451.671875 Z M 479.757812 507.589844 " fill-opacity="1" fill-rule="evenodd"/></svg>