<svg xmlns="http://www.w3.org/2000/svg" xmlns:xlink="http://www.w3.org/1999/xlink" width="1000" zoomAndPan="magnify" viewBox="0 0 750 749.999995" height="1000" preserveAspectRatio="xMidYMid meet" version="1.0"><path stroke-linecap="butt" transform="matrix(-0.556114, 0.503226, -0.503226, -0.556114, 315.565358, 376.115246)" fill="none" stroke-linejoin="miter" d="M 0.0011035 1.999399 L 272.40316 2.002535 " stroke="#000000" stroke-width="4" stroke-opacity="1" stroke-miterlimit="4"/><path stroke-linecap="round" transform="matrix(-0.556114, 0.503226, -0.503226, -0.556114, 315.565358, 376.115246)" fill="none" stroke-linejoin="round" d="M 264.404141 -3.999497 L 272.40316 2.002535 L 264.402329 8.003195 " stroke="#000000" stroke-width="4" stroke-opacity="1" stroke-miterlimit="4"/><path fill="#362701" d="M 502.890625 335.683594 C 489.367188 335.683594 479.285156 342.320312 479.285156 358.292969 C 479.285156 370.214844 485.925781 378.679688 502.148438 378.679688 C 515.910156 378.679688 525.253906 370.570312 525.253906 357.792969 C 525.253906 343.289062 516.902344 335.683594 502.890625 335.683594 Z M 475.847656 448.453125 C 472.644531 452.378906 469.453125 456.558594 469.453125 461.367188 C 469.453125 471.183594 481.980469 474.144531 499.199219 474.144531 C 513.460938 474.144531 532.882812 473.152344 532.882812 459.898438 C 532.882812 452.03125 523.535156 451.535156 511.726562 450.796875 L 475.9375 448.351562 Z M 548.621094 336.414062 C 553.035156 342.082031 557.71875 349.925781 557.71875 361.234375 C 557.71875 388.492188 536.246094 404.464844 505.355469 404.464844 C 497.402344 404.464844 490.441406 403.472656 485.925781 402.257812 L 477.8125 415.171875 L 501.910156 416.640625 C 544.460938 419.34375 569.515625 420.582031 569.515625 453.238281 C 569.515625 481.496094 544.699219 497.4375 501.910156 497.4375 C 457.414062 497.4375 440.457031 486.136719 440.457031 466.644531 C 440.457031 455.597656 445.386719 449.691406 453.976562 441.578125 C 445.863281 438.160156 443.160156 432.011719 443.160156 425.382812 C 443.160156 419.980469 445.863281 415.050781 450.292969 410.480469 L 465.53125 395.742188 C 453.484375 389.859375 444.375 377.066406 444.375 358.984375 C 444.375 330.734375 463.066406 311.335938 500.6875 311.335938 C 511.265625 311.335938 517.660156 312.3125 523.3125 313.796875 L 571.257812 313.796875 L 571.257812 334.675781 L 548.628906 336.390625 M 614.5 291.769531 C 600.582031 291.769531 592.371094 283.664062 592.371094 269.644531 C 592.371094 255.625 600.484375 248.027344 614.5 248.027344 C 628.757812 248.027344 636.871094 255.65625 636.871094 269.644531 C 636.871094 283.632812 628.757812 291.769531 614.507812 291.769531 Z M 582.683594 439.410156 L 582.683594 420.019531 L 595.234375 418.300781 C 598.671875 417.808594 599.171875 417.070312 599.171875 413.375 L 599.171875 341.167969 C 599.171875 338.464844 598.433594 336.75 595.96875 336.003906 L 582.683594 331.335938 L 585.390625 311.453125 L 636.292969 311.453125 L 636.292969 413.414062 C 636.292969 417.347656 636.53125 417.832031 640.226562 418.34375 L 652.753906 420.058594 L 652.753906 439.433594 L 582.660156 439.433594 M 750.078125 429.898438 C 739.5 435.0625 724.007812 439.832031 709.996094 439.832031 C 680.726562 439.832031 669.671875 428.054688 669.671875 400.277344 L 669.671875 335.90625 C 669.671875 334.4375 669.671875 333.445312 667.683594 333.445312 L 650.582031 333.445312 L 650.582031 311.589844 C 672.214844 309.203125 680.828125 298.316406 683.535156 271.535156 L 706.894531 271.535156 L 706.894531 306.421875 C 706.894531 308.132812 706.894531 308.886719 708.863281 308.886719 L 743.542969 308.886719 L 743.542969 333.445312 L 706.796875 333.445312 L 706.796875 392.054688 C 706.796875 406.554688 710.25 412.199219 723.5 412.199219 C 730.386719 412.199219 737.417969 410.480469 743.414062 408.273438 L 750.054688 429.890625 " fill-opacity="1" fill-rule="nonzero"/><path fill="#f03c2e" d="M 333.007812 359.367188 L 185.613281 212.109375 C 177.136719 203.628906 163.371094 203.628906 154.875 212.109375 L 124.277344 242.6875 L 163.089844 281.46875 C 172.117188 278.425781 182.457031 280.476562 189.632812 287.644531 C 190.484375 288.496094 191.273438 289.40625 191.996094 290.367188 C 192.722656 291.332031 193.375 292.339844 193.960938 293.394531 C 194.542969 294.449219 195.050781 295.539062 195.480469 296.664062 C 195.914062 297.792969 196.261719 298.941406 196.53125 300.117188 C 196.800781 301.289062 196.988281 302.480469 197.09375 303.679688 C 197.195312 304.878906 197.214844 306.082031 197.148438 307.285156 C 197.085938 308.488281 196.9375 309.683594 196.703125 310.863281 C 196.472656 312.046875 196.160156 313.207031 195.761719 314.347656 L 233.175781 351.730469 C 242.125 348.613281 252.660156 350.640625 259.898438 357.847656 C 260.699219 358.648438 261.445312 359.492188 262.132812 360.390625 C 262.824219 361.285156 263.449219 362.222656 264.015625 363.199219 C 264.582031 364.179688 265.082031 365.191406 265.515625 366.234375 C 265.949219 367.277344 266.3125 368.34375 266.605469 369.4375 C 266.898438 370.527344 267.121094 371.632812 267.265625 372.753906 C 267.414062 373.875 267.488281 375 267.488281 376.128906 C 267.488281 377.257812 267.414062 378.382812 267.269531 379.503906 C 267.121094 380.625 266.898438 381.730469 266.609375 382.820312 C 266.316406 383.914062 265.953125 384.980469 265.519531 386.023438 C 265.085938 387.066406 264.585938 388.078125 264.019531 389.058594 C 263.453125 390.035156 262.828125 390.972656 262.136719 391.867188 C 261.449219 392.765625 260.703125 393.609375 259.902344 394.410156 C 259.105469 395.207031 258.253906 395.949219 257.355469 396.636719 C 256.457031 397.324219 255.519531 397.949219 254.539062 398.511719 C 253.558594 399.078125 252.546875 399.574219 251.503906 400.007812 C 250.457031 400.4375 249.386719 400.796875 248.296875 401.089844 C 247.203125 401.382812 246.097656 401.601562 244.976562 401.75 C 243.855469 401.898438 242.730469 401.96875 241.601562 401.96875 C 240.472656 401.96875 239.34375 401.898438 238.226562 401.75 C 237.105469 401.601562 236 401.382812 234.90625 401.089844 C 233.816406 400.796875 232.746094 400.433594 231.703125 400.003906 C 230.660156 399.570312 229.648438 399.070312 228.667969 398.507812 C 227.691406 397.941406 226.753906 397.316406 225.855469 396.628906 C 224.960938 395.941406 224.113281 395.195312 223.3125 394.398438 C 215.71875 386.800781 213.847656 375.640625 217.691406 366.289062 L 182.894531 331.519531 L 182.894531 423.269531 C 185.28125 424.492188 187.683594 426.105469 189.734375 428.15625 C 199.835938 438.25 199.835938 454.605469 189.734375 464.714844 C 189.136719 465.3125 188.507812 465.878906 187.855469 466.417969 C 187.199219 466.957031 186.519531 467.460938 185.816406 467.929688 C 185.113281 468.402344 184.386719 468.835938 183.640625 469.234375 C 182.894531 469.632812 182.128906 469.996094 181.34375 470.320312 C 180.5625 470.644531 179.765625 470.929688 178.957031 471.175781 C 178.144531 471.421875 177.324219 471.625 176.492188 471.792969 C 175.660156 471.957031 174.824219 472.082031 173.980469 472.164062 C 173.136719 472.246094 172.292969 472.289062 171.445312 472.289062 C 170.597656 472.289062 169.753906 472.246094 168.910156 472.164062 C 168.066406 472.082031 167.230469 471.957031 166.398438 471.792969 C 165.570312 471.625 164.746094 471.421875 163.9375 471.175781 C 163.125 470.929688 162.328125 470.644531 161.546875 470.320312 C 160.765625 469.996094 160 469.632812 159.253906 469.234375 C 158.503906 468.835938 157.78125 468.402344 157.074219 467.929688 C 156.371094 467.460938 155.691406 466.957031 155.039062 466.417969 C 154.382812 465.878906 153.757812 465.3125 153.15625 464.714844 C 143.058594 454.597656 143.058594 438.25 153.15625 428.15625 C 155.605469 425.714844 158.429688 423.832031 161.628906 422.515625 L 161.628906 329.929688 C 158.644531 328.660156 155.664062 326.800781 153.15625 324.367188 C 152.253906 323.464844 151.421875 322.503906 150.664062 321.480469 C 149.902344 320.457031 149.222656 319.378906 148.625 318.257812 C 148.023438 317.132812 147.507812 315.96875 147.082031 314.765625 C 146.652344 313.566406 146.316406 312.339844 146.066406 311.089844 C 145.820312 309.839844 145.667969 308.574219 145.609375 307.300781 C 145.550781 306.027344 145.585938 304.757812 145.714844 303.488281 C 145.84375 302.222656 146.0625 300.96875 146.378906 299.734375 C 146.691406 298.496094 147.097656 297.292969 147.589844 296.117188 L 109.320312 257.867188 L 8.191406 358.675781 C 7.691406 359.179688 7.214844 359.707031 6.761719 360.257812 C 6.3125 360.808594 5.890625 361.378906 5.496094 361.972656 C 5.101562 362.5625 4.738281 363.171875 4.402344 363.800781 C 4.070312 364.429688 3.765625 365.070312 3.492188 365.726562 C 3.222656 366.382812 2.984375 367.054688 2.777344 367.734375 C 2.570312 368.414062 2.398438 369.105469 2.261719 369.800781 C 2.121094 370.5 2.019531 371.203125 1.949219 371.910156 C 1.878906 372.617188 1.84375 373.324219 1.84375 374.039062 C 1.84375 374.75 1.878906 375.457031 1.949219 376.164062 C 2.019531 376.871094 2.121094 377.574219 2.261719 378.273438 C 2.398438 378.96875 2.570312 379.660156 2.777344 380.339844 C 2.984375 381.019531 3.222656 381.691406 3.492188 382.347656 C 3.765625 383.003906 4.070312 383.648438 4.402344 384.273438 C 4.738281 384.902344 5.101562 385.511719 5.496094 386.101562 C 5.890625 386.695312 6.3125 387.265625 6.761719 387.816406 C 7.214844 388.367188 7.691406 388.894531 8.191406 389.398438 L 155.589844 536.65625 C 164.070312 545.136719 177.835938 545.136719 186.332031 536.65625 L 333.007812 390.089844 C 333.507812 389.585938 333.984375 389.058594 334.433594 388.507812 C 334.886719 387.957031 335.308594 387.386719 335.703125 386.792969 C 336.097656 386.203125 336.460938 385.59375 336.796875 384.964844 C 337.128906 384.339844 337.433594 383.695312 337.703125 383.039062 C 337.976562 382.382812 338.214844 381.710938 338.421875 381.03125 C 338.625 380.351562 338.800781 379.660156 338.9375 378.964844 C 339.074219 378.265625 339.179688 377.5625 339.25 376.855469 C 339.320312 376.148438 339.355469 375.441406 339.355469 374.730469 C 339.355469 374.015625 339.320312 373.308594 339.25 372.601562 C 339.179688 371.894531 339.074219 371.191406 338.9375 370.492188 C 338.800781 369.796875 338.625 369.105469 338.421875 368.425781 C 338.214844 367.746094 337.976562 367.074219 337.703125 366.417969 C 337.433594 365.761719 337.128906 365.121094 336.796875 364.492188 C 336.460938 363.863281 336.097656 363.253906 335.703125 362.664062 C 335.308594 362.070312 334.886719 361.5 334.433594 360.949219 C 333.984375 360.398438 333.507812 359.871094 333.007812 359.367188 " fill-opacity="1" fill-rule="nonzero"/></svg>