<svg xmlns="http://www.w3.org/2000/svg" xmlns:xlink="http://www.w3.org/1999/xlink" width="1000" zoomAndPan="magnify" viewBox="0 0 750 749.999995" height="1000" preserveAspectRatio="xMidYMid meet" version="1.0"><path stroke-linecap="butt" transform="matrix(0.0606068, 0.747547, -0.747547, 0.0606068, 157.665259, 458.817166)" fill="none" stroke-linejoin="miter" d="M -0.00098409 1.997632 L 90.132148 1.999959 " stroke="#000000" stroke-width="4" stroke-opacity="1" stroke-miterlimit="4"/><path stroke-linecap="round" transform="matrix(0.0606068, 0.747547, -0.747547, 0.0606068, 157.665259, 458.817166)" fill="none" stroke-linejoin="round" d="M 82.132458 -3.999442 L 90.132148 1.999959 L 82.131698 7.998067 " stroke="#000000" stroke-width="4" stroke-opacity="1" stroke-miterlimit="4"/><path fill="#f15a24" d="M 131.085938 740.511719 L 0 745.042969 L 67.199219 676.710938 L 131.089844 740.511719 Z M 131.085938 740.511719 " fill-opacity="1" fill-rule="nonzero"/><path fill="#f15a24" d="M 725.710938 401.613281 C 701.367188 591.5 527.679688 725.6875 337.800781 701.285156 C 147.917969 676.9375 13.769531 503.242188 38.113281 313.351562 C 62.484375 123.457031 236.140625 -10.722656 426.054688 13.652344 C 615.933594 38.015625 750.113281 211.730469 725.710938 401.613281 " fill-opacity="1" fill-rule="nonzero"/><path fill="#999999" d="M 470.296875 258.9375 C 493.074219 283.152344 470.609375 340.40625 470.609375 340.40625 C 470.609375 340.40625 448.375 421.339844 321.179688 526.304688 L 297.40625 503.011719 L 458.921875 337.953125 L 462.03125 333.734375 C 466.335938 326.722656 469.867188 258.46875 470.296875 258.9375 " fill-opacity="1" fill-rule="nonzero"/><path stroke-linecap="round" transform="matrix(2.850627, 0, 0, 2.850757, 0.00000265, 9.404966)" fill="none" stroke-linejoin="round" d="M 164.980151 87.532032 C 172.970443 96.026213 165.089776 116.10997 165.089776 116.10997 C 165.089776 116.10997 157.289956 144.500184 112.669839 181.320177 L 104.330116 173.149375 L 160.9898 115.249453 L 162.080569 113.769583 C 163.590654 111.309984 164.829416 87.367602 164.980151 87.532032 Z M 164.980151 87.532032 " stroke="#ffffff" stroke-width="1.918" stroke-opacity="1" stroke-miterlimit="4"/><path stroke-linecap="round" transform="matrix(2.850627, 0, 0, 2.850757, 0.00000265, 9.404966)" fill-opacity="1" fill="#666666" fill-rule="nonzero" stroke-linejoin="round" d="M 92.098706 161.110357 L 164.859563 87.322384 C 168.559407 91.708555 169.340485 96.433178 168.270271 103.169328 C 167.549487 107.829548 159.490678 117.14999 159.490678 117.14999 L 104.330116 173.149375 " stroke="#ffffff" stroke-width="1.201" stroke-opacity="1" stroke-miterlimit="4"/><path fill="#ff931e" d="M 470.296875 259.082031 L 262.539062 468.691406 L 262.957031 468.292969 L 262.882812 468.320312 L 211.335938 417.519531 C 318.8125 283.804688 388.3125 258.875 388.3125 258.875 C 388.3125 258.875 433.582031 241.210938 465.847656 254.917969 C 468.328125 256.246094 469.414062 257.011719 470.296875 259.089844 " fill-opacity="1" fill-rule="nonzero"/><path stroke-linecap="round" transform="matrix(2.850627, 0, 0, 2.850757, 0.00000265, 9.404966)" fill="none" stroke-linejoin="round" d="M 164.980151 87.582732 L 92.098706 161.110357 L 92.24533 160.970591 L 92.219294 160.980183 L 74.136649 143.160079 C 111.839429 96.255045 136.22003 87.510108 136.22003 87.510108 C 136.22003 87.510108 152.100583 81.313837 163.419365 86.122045 C 164.289513 86.58793 164.67046 86.856499 164.980151 87.585472 Z M 164.980151 87.582732 " stroke="#ffffff" stroke-width="1.918" stroke-opacity="1" stroke-miterlimit="4"/><path stroke-linecap="round" transform="matrix(2.850627, 0, 0, 2.850757, 0.00000265, 9.404966)" fill-opacity="1" fill="#999999" fill-rule="nonzero" stroke-linejoin="round" d="M 112.669839 181.320177 C 95.276461 195.640661 73.023956 218.14017 42.775676 233.829534 L 49.503911 262.589715 L 20.987706 234.499586 L 92.097336 161.110357 " stroke="#ffffff" stroke-width="1.918" stroke-opacity="1" stroke-miterlimit="4"/><path stroke-linecap="round" transform="matrix(2.850627, 0, 0, 2.850757, 0.00000265, 9.404966)" fill-opacity="1" fill="#f15a24" fill-rule="nonzero" stroke-linejoin="round" d="M 74.62311 143.399873 L 92.28781 160.999366 L 51.478531 169.840221 L 74.232571 143.080605 L 74.624481 143.399873 Z M 74.62311 143.399873 " stroke="#ffffff" stroke-width="1.918" stroke-opacity="1" stroke-miterlimit="4"/><path fill="#999999" d="M 450.457031 198.257812 C 445.523438 242.84375 477.621094 282.984375 522.207031 287.957031 C 566.761719 292.90625 606.925781 260.777344 611.914062 216.207031 C 616.875 171.636719 584.71875 131.453125 540.136719 126.5 C 495.554688 121.574219 455.417969 153.660156 450.457031 198.257812 " fill-opacity="1" fill-rule="nonzero"/><path stroke-linecap="round" transform="matrix(2.850627, 0, 0, 2.850757, 0.00000265, 9.404966)" fill="none" stroke-linejoin="round" d="M 158.020333 66.246566 C 156.289628 81.886602 167.549487 95.967293 183.190234 97.711621 C 198.820019 99.447728 212.909573 88.17742 214.659462 72.542866 C 216.399759 56.908311 205.119346 42.812547 189.479969 41.07507 C 173.840592 39.347185 159.76063 50.60242 158.020333 66.246566 Z M 158.020333 66.246566 " stroke="#ffffff" stroke-width="1.918" stroke-opacity="1" stroke-miterlimit="4"/><path fill="#666666" d="M 600.257812 252.113281 C 615.222656 230.222656 614.453125 197.472656 611.429688 187.769531 C 607.753906 175.890625 599.488281 156.570312 585.089844 146.527344 L 508.949219 216.671875 C 508.949219 216.671875 567.472656 279.558594 568.984375 279.765625 C 569.613281 279.839844 586.574219 272.074219 600.257812 252.113281 " fill-opacity="1" fill-rule="nonzero"/><path stroke-linecap="round" transform="matrix(2.850627, 0, 0, 2.850757, 0.00000265, 9.404966)" fill="none" stroke-linejoin="round" d="M 210.57045 85.138205 C 215.820117 77.459323 215.550165 65.971146 214.489543 62.567444 C 213.200079 58.400514 210.300498 51.623256 205.249526 48.100343 L 178.539393 72.705925 C 178.539393 72.705925 199.069416 94.765583 199.599727 94.838206 C 199.820347 94.864241 205.770245 92.140184 210.57045 85.138205 Z M 205.17964 65.862896 C 205.17964 65.862896 207.739384 72.170158 204.490373 77.077024 Z M 205.17964 65.862896 " stroke="#ffffff" stroke-width="1.918" stroke-opacity="1" stroke-miterlimit="4"/><path fill="#666666" d="M 299.203125 503.042969 L 215.171875 517.980469 L 265.902344 465.269531 " fill-opacity="1" fill-rule="nonzero"/><path stroke-linecap="round" transform="matrix(2.850627, 0, 0, 2.850757, 0.00000265, 9.404966)" fill="none" stroke-linejoin="round" d="M 104.96046 173.160337 L 75.482296 178.400174 L 93.278546 159.910018 M 75.308267 143.530047 L 112.790426 178.800287 " stroke="#ffffff" stroke-width="1.918" stroke-opacity="1" stroke-miterlimit="4"/></svg>