<svg xmlns="http://www.w3.org/2000/svg" xmlns:xlink="http://www.w3.org/1999/xlink" width="1000" zoomAndPan="magnify" viewBox="0 0 750 749.999995" height="1000" preserveAspectRatio="xMidYMid meet" version="1.0"><defs><clipPath id="b49dc95ada"><path d="M 109.089844 147 L 640.839844 147 L 640.839844 750 L 109.089844 750 Z M 109.089844 147 " clip-rule="nonzero"/></clipPath></defs><path stroke-linecap="butt" transform="matrix(-0.65644, 0.362748, -0.362748, -0.65644, 466.90666, 253.120556)" fill="none" stroke-linejoin="miter" d="M 0.00231446 1.99988 L 199.52872 1.998295 " stroke="#000000" stroke-width="4" stroke-opacity="1" stroke-miterlimit="4"/><path stroke-linecap="round" transform="matrix(-0.65644, 0.362748, -0.362748, -0.65644, 466.90666, 253.120556)" fill="none" stroke-linejoin="round" d="M 191.530355 -3.998519 L 199.52872 1.998295 L 191.530173 7.997905 " stroke="#000000" stroke-width="4" stroke-opacity="1" stroke-miterlimit="4"/><g clip-path="url(#b49dc95ada)"><path fill="#e44d26" d="M 640.695312 147.386719 L 592.296875 689.652344 L 374.738281 749.972656 L 157.78125 689.738281 L 109.433594 147.386719 L 640.6875 147.378906 L 640.707031 147.378906 Z M 640.695312 147.386719 " fill-opacity="1" fill-rule="nonzero"/></g><path fill="#f16529" d="M 375.070312 703.867188 L 550.875 655.128906 L 592.234375 191.738281 L 375.070312 191.730469 Z M 375.070312 703.867188 " fill-opacity="1" fill-rule="nonzero"/><path fill="#ebebeb" d="M 280.980469 324.765625 L 375.070312 324.765625 L 375.070312 258.242188 L 208.296875 258.242188 L 209.886719 276.089844 L 226.234375 459.394531 L 375.070312 459.394531 L 375.070312 392.890625 L 287.058594 392.890625 Z M 280.980469 324.765625 " fill-opacity="1" fill-rule="nonzero"/><path fill="#ebebeb" d="M 295.972656 492.65625 L 229.207031 492.65625 L 238.523438 597.105469 L 374.757812 634.929688 L 375.070312 634.84375 L 375.070312 565.632812 L 374.777344 565.71875 L 300.707031 545.703125 Z M 295.972656 492.65625 " fill-opacity="1" fill-rule="nonzero"/><path fill="#000000" d="M 158.863281 0 L 192.664062 0 L 192.664062 33.398438 L 223.582031 33.398438 L 223.582031 0 L 257.382812 0 L 257.382812 101.132812 L 223.582031 101.132812 L 223.582031 67.269531 L 192.664062 67.269531 L 192.664062 101.132812 L 158.863281 101.132812 Z M 158.863281 0 " fill-opacity="1" fill-rule="nonzero"/><path fill="#000000" d="M 301.828125 33.539062 L 272.074219 33.539062 L 272.074219 0 L 365.40625 0 L 365.40625 33.539062 L 335.628906 33.539062 L 335.628906 101.132812 L 301.832031 101.132812 L 301.832031 33.539062 Z M 301.828125 33.539062 " fill-opacity="1" fill-rule="nonzero"/><path fill="#000000" d="M 380.214844 0 L 415.449219 0 L 437.128906 35.535156 L 458.789062 0 L 494.042969 0 L 494.042969 101.132812 L 460.390625 101.132812 L 460.390625 51.007812 L 437.128906 86.964844 L 436.546875 86.964844 L 413.285156 51.007812 L 413.285156 101.132812 L 380.214844 101.132812 Z M 380.214844 0 " fill-opacity="1" fill-rule="nonzero"/><path fill="#000000" d="M 510.871094 0 L 544.671875 0 L 544.671875 67.707031 L 592.214844 67.707031 L 592.214844 101.132812 L 510.871094 101.132812 Z M 510.871094 0 " fill-opacity="1" fill-rule="nonzero"/><path fill="#ffffff" d="M 374.839844 459.394531 L 456.746094 459.394531 L 449.019531 545.660156 L 374.839844 565.695312 L 374.839844 634.886719 L 511.183594 597.105469 L 512.183594 585.859375 L 527.824219 410.738281 L 529.449219 392.890625 L 374.839844 392.890625 Z M 374.839844 459.394531 " fill-opacity="1" fill-rule="nonzero"/><path fill="#ffffff" d="M 374.839844 324.597656 L 374.839844 324.765625 L 535.488281 324.765625 L 536.820312 309.808594 L 539.859375 276.089844 L 541.441406 258.242188 L 374.839844 258.242188 Z M 374.839844 324.597656 " fill-opacity="1" fill-rule="nonzero"/></svg>