<svg xmlns="http://www.w3.org/2000/svg" xmlns:xlink="http://www.w3.org/1999/xlink" width="1000" zoomAndPan="magnify" viewBox="0 0 750 749.999995" height="1000" preserveAspectRatio="xMidYMid meet" version="1.0"><defs><clipPath id="13260e041d"><path d="M 0 546 L 750 546 L 750 640.96875 L 0 640.96875 Z M 0 546 " clip-rule="nonzero"/></clipPath><clipPath id="c1ca78b630"><path d="M 0 109.21875 L 750 109.21875 L 750 204 L 0 204 Z M 0 109.21875 " clip-rule="nonzero"/></clipPath></defs><path stroke-linecap="butt" transform="matrix(0.742277, 0.107356, -0.107356, 0.742277, 279.617127, 147.376566)" fill="none" stroke-linejoin="miter" d="M -0.000427292 1.997712 L 160.049027 1.999487 " stroke="#000000" stroke-width="4" stroke-opacity="1" stroke-miterlimit="4"/><path stroke-linecap="round" transform="matrix(0.742277, 0.107356, -0.107356, 0.742277, 279.617127, 147.376566)" fill="none" stroke-linejoin="round" d="M 152.050491 -4.000714 L 160.049027 1.999487 L 152.049244 7.998025 " stroke="#000000" stroke-width="4" stroke-opacity="1" stroke-miterlimit="4"/><path fill="#ffffff" d="M 703.125 328.125 L 46.875 328.125 C 20.984375 328.125 0 349.109375 0 375 C 0 400.890625 20.984375 421.875 46.875 421.875 L 703.125 421.875 C 729.015625 421.875 750 400.890625 750 375 C 750 349.109375 729.015625 328.125 703.125 328.125 Z M 703.125 328.125 " fill-opacity="1" fill-rule="nonzero"/><g clip-path="url(#13260e041d)"><path fill="#ffffff" d="M 703.125 546.875 L 46.875 546.875 C 20.984375 546.875 0 567.859375 0 593.75 C 0 619.640625 20.984375 640.625 46.875 640.625 L 703.125 640.625 C 729.015625 640.625 750 619.640625 750 593.75 C 750 567.859375 729.015625 546.875 703.125 546.875 Z M 703.125 546.875 " fill-opacity="1" fill-rule="nonzero"/></g><g clip-path="url(#c1ca78b630)"><path fill="#ffffff" d="M 46.875 203.125 L 703.125 203.125 C 729.015625 203.125 750 182.140625 750 156.25 C 750 130.359375 729.015625 109.375 703.125 109.375 L 46.875 109.375 C 20.984375 109.375 0 130.359375 0 156.25 C 0 182.140625 20.984375 203.125 46.875 203.125 Z M 46.875 203.125 " fill-opacity="1" fill-rule="nonzero"/></g></svg>