<svg xmlns="http://www.w3.org/2000/svg" xmlns:xlink="http://www.w3.org/1999/xlink" width="1000" zoomAndPan="magnify" viewBox="0 0 750 749.999995" height="1000" preserveAspectRatio="xMidYMid meet" version="1.0"><path stroke-linecap="butt" transform="matrix(-0.75, 0, 0, -0.75, 430.987998, 376.500002)" fill="none" stroke-linejoin="miter" d="M -0.000378138 2.000002 L 55.254833 2.000002 " stroke="#000000" stroke-width="4" stroke-opacity="1" stroke-miterlimit="4"/><path stroke-linecap="round" transform="matrix(-0.75, 0, 0, -0.75, 430.987998, 376.500002)" fill="none" stroke-linejoin="round" d="M 47.254832 -3.999998 L 55.254833 2.000002 L 47.254832 8.000003 " stroke="#000000" stroke-width="4" stroke-opacity="1" stroke-miterlimit="4"/><path fill="#53c1de" d="M 441.972656 374.492188 C 441.972656 338.621094 411.988281 309.539062 375 309.539062 C 338.015625 309.539062 308.027344 338.621094 308.027344 374.492188 C 308.027344 410.367188 338.015625 439.445312 375 439.445312 C 411.988281 439.445312 441.972656 410.367188 441.972656 374.492188 Z M 441.972656 374.492188 " fill-opacity="1" fill-rule="nonzero"/><path fill="#53c1de" d="M 592.511719 253.902344 C 606.652344 198.164062 624.429688 94.804688 561.761719 59.761719 C 499.382812 24.875 418.210938 91.730469 375.347656 131.859375 C 332.609375 92.128906 249.15625 25.558594 186.539062 60.714844 C 124.1875 95.71875 143.414062 197.367188 157.871094 253.453125 C 99.707031 269.476562 0 303.984375 0 374.492188 C 0 444.796875 99.605469 482.34375 157.425781 498.347656 C 142.914062 554.746094 124.648438 654.941406 187.082031 689.871094 C 249.933594 725.015625 333.125 660.03125 376.386719 619.464844 C 419.523438 659.828125 499.914062 725.238281 562.304688 690.214844 C 624.890625 655.078125 608.589844 553.101562 594.132812 496.6875 C 650.183594 480.648438 750 443.917969 750 374.492188 C 750 304.664062 649.757812 269.875 592.511719 253.902344 Z M 585.40625 466.792969 C 575.914062 437.652344 563.101562 406.660156 547.425781 374.644531 C 562.386719 343.386719 574.703125 312.796875 583.929688 283.84375 C 625.898438 295.640625 717.960938 322.613281 717.960938 374.492188 C 717.960938 426.859375 629.613281 454.082031 585.40625 466.792969 Z M 546.25 663.320312 C 499.699219 689.453125 430.550781 626.902344 398.695312 597.175781 C 419.828125 574.757812 440.949219 548.695312 461.5625 519.753906 C 497.824219 516.636719 532.074219 511.535156 563.140625 504.570312 C 573.316406 544.472656 593.003906 637.070312 546.25 663.320312 Z M 203.089844 662.949219 C 156.535156 636.914062 177.816406 547.503906 188.488281 505.960938 C 219.207031 512.554688 253.214844 517.292969 289.558594 520.152344 C 310.308594 548.46875 332.039062 574.5 353.941406 597.296875 C 326.882812 622.679688 249.863281 689.101562 203.089844 662.949219 Z M 32.039062 374.492188 C 32.039062 321.929688 123.550781 295.15625 166.476562 283.382812 C 175.863281 312.988281 188.171875 343.945312 203.03125 375.25 C 187.980469 407.015625 175.496094 438.464844 166.019531 468.417969 C 125.09375 457.054688 32.039062 427.085938 32.039062 374.492188 Z M 202.59375 87.605469 C 249.335938 61.363281 321.867188 125.273438 352.898438 154.039062 C 331.109375 176.730469 309.578125 202.5625 289.007812 230.71875 C 253.734375 233.886719 219.96875 238.980469 188.925781 245.800781 C 177.28125 200.566406 155.898438 113.820312 202.59375 87.605469 Z M 484.484375 264.492188 C 508.414062 267.421875 531.339844 271.316406 552.867188 276.082031 C 546.40625 296.171875 538.351562 317.179688 528.863281 338.714844 C 515.109375 313.410156 500.347656 288.609375 484.484375 264.492188 Z M 375.359375 176.242188 C 390.136719 191.769531 404.933594 209.105469 419.496094 227.917969 C 389.960938 226.5625 360.382812 226.554688 330.851562 227.898438 C 345.421875 209.261719 360.351562 191.949219 375.359375 176.242188 Z M 221.414062 338.695312 C 212.082031 317.234375 204.097656 296.132812 197.582031 275.753906 C 218.980469 271.109375 241.800781 267.316406 265.574219 264.433594 C 249.664062 288.5 234.925781 313.289062 221.414062 338.695312 Z M 266.257812 486.765625 C 241.699219 484.109375 218.53125 480.503906 197.140625 475.988281 C 203.761719 455.253906 211.917969 433.695312 221.449219 411.773438 C 235.148438 437.441406 250.113281 462.472656 266.257812 486.765625 Z M 376.246094 574.933594 C 361.058594 559.042969 345.914062 541.464844 331.121094 522.5625 C 360.820312 523.691406 390.578125 523.695312 420.273438 522.410156 C 405.671875 541.660156 390.921875 559.261719 376.246094 574.933594 Z M 529.167969 410.660156 C 539.191406 432.820312 547.640625 454.257812 554.355469 474.644531 C 532.609375 479.457031 509.128906 483.332031 484.390625 486.210938 C 500.375 461.632812 515.371094 436.449219 529.167969 410.660156 Z M 443.683594 489.976562 C 398.253906 493.125 352.539062 493.089844 307.09375 490.234375 C 281.273438 453.652344 258.285156 415.179688 238.441406 375.238281 C 258.191406 335.378906 281.011719 296.984375 306.710938 260.457031 C 352.1875 257.125 397.945312 257.113281 443.421875 260.476562 C 468.902344 297 491.6875 335.296875 511.890625 374.796875 C 491.925781 414.632812 468.988281 453.109375 443.683594 489.976562 Z M 545.757812 86.679688 C 592.515625 112.835938 571.703125 205.730469 561.488281 246.125 C 530.371094 239.160156 496.582031 233.976562 461.207031 230.757812 C 440.597656 202.296875 419.246094 176.421875 397.808594 154.023438 C 429.238281 124.636719 499.453125 60.78125 545.757812 86.679688 Z M 545.757812 86.679688 " fill-opacity="1" fill-rule="evenodd"/></svg>