<svg xmlns="http://www.w3.org/2000/svg" xmlns:xlink="http://www.w3.org/1999/xlink" width="1000" zoomAndPan="magnify" viewBox="0 0 750 749.999995" height="1000" preserveAspectRatio="xMidYMid meet" version="1.0"><defs><clipPath id="a89e50b213"><path d="M 46.363281 0 L 703.363281 0 L 703.363281 750 L 46.363281 750 Z M 46.363281 0 " clip-rule="nonzero"/></clipPath></defs><path stroke-linecap="butt" transform="matrix(0.715221, -0.22574, 0.22574, 0.715221, 287.073533, 236.77971)" fill="none" stroke-linejoin="miter" d="M -0.0023185 2.000366 L 154.822609 2.001679 " stroke="#000000" stroke-width="4" stroke-opacity="1" stroke-miterlimit="4"/><path stroke-linecap="round" transform="matrix(0.715221, -0.22574, 0.22574, 0.715221, 287.073533, 236.77971)" fill="none" stroke-linejoin="round" d="M 146.821326 -4.002743 L 154.822609 2.001679 L 146.822627 8.002257 " stroke="#000000" stroke-width="4" stroke-opacity="1" stroke-miterlimit="4"/><g clip-path="url(#a89e50b213)"><path fill="#ffffff" d="M 381.046875 749.628906 L 380.597656 749.628906 C 268.820312 748.882812 182.890625 712.023438 125.128906 640.101562 C 73.808594 576.046875 47.289062 486.96875 46.390625 375.339844 L 46.390625 374.816406 C 47.289062 263.113281 73.808594 174.113281 125.203125 110.058594 C 182.890625 38.0625 268.894531 1.203125 380.597656 0.453125 L 381.046875 0.453125 C 466.753906 1.050781 538.449219 23.078125 594.113281 65.929688 C 646.480469 106.234375 683.34375 163.625 703.644531 236.59375 L 639.964844 254.347656 C 605.503906 130.734375 518.296875 67.578125 380.75 66.605469 C 289.949219 67.277344 221.25 95.824219 176.597656 151.410156 C 134.867188 203.480469 113.292969 278.695312 112.46875 375.042969 C 113.292969 471.386719 134.867188 546.601562 176.671875 598.671875 C 221.324219 654.335938 290.023438 682.878906 380.824219 683.476562 C 462.707031 682.878906 516.875 663.773438 561.898438 619.648438 C 613.292969 569.304688 612.394531 507.496094 595.914062 469.886719 C 586.25 447.710938 568.644531 429.28125 544.894531 415.273438 C 538.898438 457.449219 525.488281 491.613281 504.8125 517.386719 C 477.167969 551.773438 437.984375 570.578125 388.390625 573.273438 C 350.855469 575.296875 314.671875 566.457031 286.652344 548.25 C 253.464844 526.75 234.058594 493.9375 231.960938 455.726562 C 229.9375 418.570312 244.699219 384.40625 273.464844 359.535156 C 300.960938 335.785156 339.617188 321.851562 385.320312 319.226562 C 418.957031 317.355469 450.496094 318.851562 479.566406 323.648438 C 475.667969 300.5 467.878906 282.066406 456.191406 268.808594 C 440.160156 250.527344 415.359375 241.238281 382.546875 241.011719 L 381.648438 241.011719 C 355.277344 241.011719 319.464844 248.28125 296.691406 282.21875 L 241.851562 245.433594 C 272.417969 200.035156 322.011719 175.011719 381.648438 175.011719 L 382.996094 175.011719 C 482.710938 175.609375 542.121094 236.667969 548.039062 343.203125 C 551.410156 344.625 554.78125 346.125 558.078125 347.621094 C 604.601562 369.496094 638.617188 402.609375 656.519531 443.441406 C 681.394531 500.304688 683.714844 592.976562 608.199219 666.921875 C 550.4375 723.410156 480.390625 748.957031 381.046875 749.628906 Z M 412.140625 384.707031 C 404.574219 384.707031 396.929688 384.929688 389.066406 385.378906 C 331.753906 388.601562 296.015625 414.898438 298.039062 452.28125 C 300.136719 491.464844 343.363281 509.667969 384.945312 507.421875 C 423.152344 505.398438 472.898438 490.488281 481.289062 391.597656 C 460.160156 387.027344 437.011719 384.707031 412.140625 384.707031 Z M 412.140625 384.707031 " fill-opacity="1" fill-rule="nonzero"/></g></svg>